<svg xmlns="http://www.w3.org/2000/svg" width="41" height="42" fill="none" viewBox="0 0 41 42">
    <g clip-path="url(#clip0)">
        <path fill="#FFC107" d="M38.669 18.381c-.631-.465-1.427-1.046-1.523-1.426.04-.735.25-1.45.613-2.09.556-1.277 1.13-2.6.492-3.7-.638-1.1-2.089-1.278-3.484-1.426-.724-.005-1.437-.175-2.084-.497-.323-.65-.493-1.365-.496-2.091-.157-1.396-.319-2.84-1.426-3.485s-2.431-.08-3.708.483c-.64.363-1.357.573-2.092.613-.385-.103-.965-.89-1.426-1.522-.81-1.09-1.72-2.328-3.036-2.328s-2.226 1.237-3.03 2.328c-.467.633-1.047 1.426-1.426 1.524-.735-.044-1.45-.254-2.093-.613-1.284-.565-2.606-1.128-3.702-.494-1.097.635-1.28 2.09-1.437 3.494-.005.723-.175 1.436-.496 2.084-.646.317-1.356.484-2.076.488-1.398.157-2.843.32-3.487 1.426-.643 1.107-.078 2.43.485 3.708.364.642.574 1.36.613 2.098-.103.385-.891.966-1.522 1.426C1.238 19.183 0 20.096 0 21.411c0 1.316 1.237 2.229 2.33 3.03.63.466 1.426 1.047 1.522 1.427-.04.735-.25 1.45-.613 2.09-.556 1.277-1.13 2.6-.492 3.7.638 1.1 2.09 1.277 3.485 1.425.723.005 1.436.175 2.084.498.322.65.492 1.365.495 2.09.157 1.396.32 2.84 1.426 3.486 1.107.645 2.42.064 3.699-.492.648-.36 1.368-.566 2.107-.606.385.103.964.89 1.426 1.522.804 1.09 1.715 2.328 3.03 2.328 1.316 0 2.227-1.237 3.03-2.328.468-.633 1.047-1.426 1.427-1.524.735.041 1.45.251 2.092.613 1.277.556 2.6 1.127 3.697.494 1.098-.633 1.28-2.09 1.437-3.487.005-.723.175-1.436.496-2.084.647-.32 1.36-.489 2.082-.493 1.397-.157 2.843-.32 3.486-1.426.644-1.107.063-2.421-.492-3.7-.363-.645-.57-1.366-.606-2.106.104-.385.892-.966 1.523-1.426 1.09-.804 2.33-1.717 2.33-3.03 0-1.314-1.24-2.229-2.332-3.031z"/>
        <path fill="#fff" d="M15.014 24.456c.56 0 .84.238.84.714 0 .495-.28.742-.84.742h-4.732c-.57 0-.854-.247-.854-.742 0-.476.285-.714.854-.714h1.456v-6.384l-1.344.826c-.13.075-.247.112-.35.112-.196 0-.364-.084-.504-.252-.13-.168-.196-.355-.196-.56 0-.27.121-.48.364-.63l2.17-1.344c.28-.168.546-.252.798-.252.261 0 .471.08.63.238.159.159.238.378.238.658v7.588h1.47zm5.58 1.582c-1.166 0-2.058-.43-2.674-1.288-.616-.868-.924-2.128-.924-3.78 0-1.643.309-2.893.925-3.752.616-.868 1.507-1.302 2.674-1.302 1.166 0 2.058.434 2.674 1.302.616.859.924 2.11.924 3.752 0 1.643-.309 2.898-.925 3.766-.616.868-1.507 1.302-2.674 1.302zm0-1.414c.635 0 1.097-.29 1.386-.868.29-.588.434-1.517.434-2.786 0-1.279-.144-2.203-.434-2.772-.289-.579-.75-.868-1.386-.868-.634 0-1.096.29-1.386.868-.289.579-.433 1.503-.433 2.772 0 1.27.144 2.198.434 2.786.289.579.75.868 1.386.868zm8.395 1.414c-1.167 0-2.058-.43-2.674-1.288-.616-.868-.924-2.128-.924-3.78 0-1.643.308-2.893.924-3.752.616-.868 1.507-1.302 2.674-1.302s2.058.434 2.674 1.302c.616.859.924 2.11.924 3.752 0 1.643-.308 2.898-.924 3.766-.616.868-1.507 1.302-2.674 1.302zm0-1.414c.635 0 1.097-.29 1.386-.868.29-.588.434-1.517.434-2.786 0-1.279-.145-2.203-.434-2.772-.29-.579-.751-.868-1.386-.868-.635 0-1.097.29-1.386.868-.29.579-.434 1.503-.434 2.772 0 1.27.145 2.198.434 2.786.29.579.751.868 1.386.868z"/>
    </g>
    <defs>
        <clipPath id="clip0">
            <path fill="#fff" d="M0 0H41V41H0z" transform="translate(0 .912)"/>
        </clipPath>
    </defs>
</svg>
