<svg xmlns="http://www.w3.org/2000/svg" width="19" height="20" fill="none" viewBox="0 0 19 20">
    <g fill="#278CCC" clip-path="url(#clip0)">
        <path d="M15.397.912H3.603C1.616.912 0 2.528 0 4.515V6.18c0 1.987 1.616 3.603 3.603 3.603h4.699V5.904h-2.01c-.25 1.025-1.176 1.788-2.277 1.788-1.293 0-2.345-1.052-2.345-2.345 0-1.293 1.052-2.345 2.345-2.345 1.1 0 2.027.763 2.277 1.788h2.01c0-1.177.882-1.934 1.843-1.934.932 0 1.841.712 1.841 1.934h4.787c.308 0 .557.25.557.557 0 .307-.25.557-.557.557h-4.787v1.81c1.068-.462 2.288.178 2.53 1.305.756-.35 1.662-.147 2.198.513C18.052 9.005 19 7.701 19 6.18V4.515C19 2.528 17.384.912 15.397.912z"/>
        <path d="M4.015 6.579c.68 0 1.232-.552 1.232-1.232 0-.68-.552-1.232-1.232-1.232-.68 0-1.232.552-1.232 1.232 0 .68.552 1.232 1.232 1.232zM17.925 11.5c-.439 0-.796.359-.796.8 0 .58-.002.813-.002.832 0 .308-.25.557-.557.557-.307 0-.556-.249-.556-.556v-2.439c0-.401-.325-.73-.73-.73-.4 0-.727.326-.728.728v2.44c0 .308-.25.557-.556.557-.308 0-.557-.249-.557-.556v-2.435-1.291c0-.404-.328-.73-.729-.73-.4 0-.727.326-.729.727v3.729c0 .307-.249.556-.556.556-.308 0-.557-.249-.557-.556V4.699c0-.41-.337-.74-.747-.73-.392.01-.71.349-.71.757v10.5c0 .305-.248.557-.557.557-.308 0-.557-.25-.557-.557v-2.241c0-.403-.325-.729-.728-.729-.397 0-.73.32-.73.728v3.106c0 2.108 1.716 3.822 3.824 3.822h4.23c2.108 0 3.823-1.714 3.823-3.822v-3.84c-.027-.423-.374-.75-.795-.75z"/>
    </g>
    <defs>
        <clipPath id="clip0">
            <path fill="#fff" d="M0 0H19V19H0z" transform="translate(0 .912)"/>
        </clipPath>
    </defs>
</svg>
