<svg xmlns="http://www.w3.org/2000/svg" width="15" height="15" fill="none" viewBox="0 0 15 15">
    <path fill="#B9B9B9" d="M11.736 7.865c-1.8 0-3.263 1.464-3.263 3.264 0 1.8 1.464 3.264 3.263 3.264 1.8 0 3.264-1.464 3.264-3.264 0-1.8-1.464-3.264-3.264-3.264zm.942 3.703h-.502v.502c0 .243-.197.44-.44.44-.242 0-.44-.197-.44-.44v-.502h-.501c-.243 0-.44-.196-.44-.44 0-.242.197-.439.44-.439h.502v-.502c0-.242.197-.439.44-.439.242 0 .439.197.439.44v.501h.502c.242 0 .44.197.44.44s-.198.44-.44.44zM4.676 7.332c1.8 0 3.263-1.464 3.263-3.264 0-1.8-1.464-3.263-3.263-3.263-1.8 0-3.264 1.464-3.264 3.263 0 1.8 1.464 3.264 3.264 3.264z"/>
    <path fill="#B9B9B9" d="M8.539 8.498c-.33-.483-.749-.902-1.232-1.232-.716.59-1.633.945-2.631.945-.998 0-1.915-.355-2.631-.945C.81 8.108 0 9.526 0 11.129v1.647c0 .892.725 1.617 1.616 1.617h6.12c.393 0 .753-.142 1.034-.376-.727-.747-1.176-1.766-1.176-2.888 0-.998.355-1.915.945-2.631z"/>
</svg>
