<svg xmlns="http://www.w3.org/2000/svg" width="40" height="41" fill="none" viewBox="0 0 40 41">
    <rect width="40" height="40" y=".912" fill="url(#paint0_linear)" rx="20"/>
    <path fill="#fff" d="M14.633 19.97h4.827v-4.828c0-.666.54-1.207 1.207-1.207s1.207.54 1.207 1.207v4.828H26.7c.668 0 1.207.54 1.207 1.206 0 .667-.54 1.207-1.207 1.207h-4.827v4.828c0 .666-.54 1.207-1.207 1.207-.668 0-1.207-.541-1.207-1.207v-4.828h-4.828c-.667 0-1.206-.54-1.206-1.207 0-.666.54-1.206 1.207-1.206z"/>
    <defs>
        <linearGradient id="paint0_linear" x1="-2.295" x2="49.84" y1="8.354" y2="12.585" gradientUnits="userSpaceOnUse">
            <stop stop-color="#23B14D"/>
            <stop offset="1" stop-color="#7AD06D"/>
        </linearGradient>
    </defs>
</svg>
