<svg xmlns="http://www.w3.org/2000/svg" width="28" height="29" fill="none" viewBox="0 0 28 29">
    <g clip-path="url(#clip0)">
        <path fill="#278CCC" d="M24.96 20.644c-1.764-1.491-2.775-3.67-2.775-5.98v-3.252c0-4.105-3.05-7.504-7-8.073v-1.26c0-.645-.523-1.167-1.167-1.167s-1.166.522-1.166 1.167v1.26c-3.952.57-7 3.968-7 8.073v3.253c0 2.309-1.012 4.488-2.787 5.988-.453.389-.713.953-.713 1.55 0 1.127.915 2.043 2.041 2.043h19.25c1.126 0 2.042-.916 2.042-2.042 0-.598-.26-1.162-.725-1.56zM14.019 28.912c2.113 0 3.88-1.506 4.286-3.5H9.732c.407 1.994 2.174 3.5 4.287 3.5z"/>
    </g>
    <defs>
        <clipPath id="clip0">
            <path fill="#fff" d="M0 0H28V28H0z" transform="translate(0 .912)"/>
        </clipPath>
    </defs>
</svg>
