<svg xmlns="http://www.w3.org/2000/svg" width="43" height="44" fill="none" viewBox="0 0 43 44">
    <rect width="43" height="43" y=".412" fill="#F2F2F2" rx="21.5"/>
    <path fill="#B9B9B9" d="M17.585 16.7c-1.89 1.887-2.054 4.827-.48 6.901.635.835 1.08 1.755 1.331 2.745h2.177v-4.102c0-.383.31-.692.692-.692.383 0 .693.31.693.692v4.102h2.18c.251-.988.7-1.914 1.338-2.76 1.546-2.049 1.419-5.012-.511-6.914-2.054-2.024-5.36-2.03-7.42.028zM14.003 20.43c.382 0 .693-.31.693-.693 0-.382-.31-.692-.693-.692h-2.31c-.383 0-.693.31-.693.692 0 .382.31.692.693.692h2.31zM30.648 23.773l-1.99-1.171c-.33-.195-.755-.085-.949.245-.194.329-.084.753.245.947l1.99 1.172c.33.194.755.084.95-.245.194-.33.084-.754-.246-.948zM13.953 22.602l-1.99 1.171c-.33.194-.44.619-.246.948.194.33.62.44.949.245l1.99-1.172c.33-.194.44-.618.245-.947-.194-.33-.619-.44-.948-.245zM28.658 16.873l1.99-1.172c.33-.194.44-.619.245-.948-.194-.33-.619-.439-.948-.245l-1.99 1.172c-.33.194-.44.618-.246.948.195.33.62.439.949.245zM14.656 15.68l-1.99-1.172c-.33-.194-.755-.084-.949.245-.194.33-.084.754.245.948l1.99 1.172c.33.194.755.084.95-.245.193-.33.084-.754-.246-.948zM30.919 19.045h-2.31c-.383 0-.693.31-.693.692 0 .382.31.692.693.692h2.31c.382 0 .693-.31.693-.692 0-.382-.31-.692-.693-.692zM18.574 27.73v.738c0 1.072.902 1.944 2.011 1.944h1.427c1.102 0 2.004-.866 2.012-1.93l.006-.752h-5.456z"/>
</svg>
