<svg xmlns="http://www.w3.org/2000/svg" width="43" height="44" fill="none" viewBox="0 0 43 44">
    <rect width="43" height="43" y=".412" fill="#F2F2F2" rx="21.5"/>
    <g fill="#B9B9B9" clip-path="url(#clip0)">
        <path d="M19.934 25l-.276 1.64c-.038.225.054.451.238.585.184.133.428.151.629.046l1.475-.77 1.474.77c.087.046.183.068.278.068.124 0 .247-.038.352-.114.183-.134.276-.36.238-.584l-.276-1.64 1.187-1.165c.163-.16.22-.397.15-.613-.07-.215-.256-.374-.481-.407l-1.646-.244-.74-1.49c-.101-.203-.31-.332-.537-.332-.226 0-.434.13-.536.333l-.74 1.49-1.646.243c-.225.033-.411.191-.481.407-.07.216-.013.454.15.613L19.934 25z"/>
        <path d="M29.072 15.326h-1.885V14.28c0-.48-.388-.869-.868-.869h-.138c-.48 0-.868.389-.868.869v1.045h-6.648V14.28c0-.48-.389-.869-.868-.869h-.138c-.48 0-.869.389-.869.869v1.045h-1.862c-.985 0-1.787.801-1.787 1.787v12.512c0 .985.802 1.787 1.787 1.787h14.144c.985 0 1.787-.802 1.787-1.787V17.113c0-.986-.802-1.787-1.787-1.787zm-.234 14.066H15.161v-9.74h13.677v9.74z"/>
    </g>
    <defs>
        <clipPath id="clip0">
            <path fill="#fff" d="M0 0H18V18H0z" transform="translate(13 13.412)"/>
        </clipPath>
    </defs>
</svg>
