<svg xmlns="http://www.w3.org/2000/svg" width="24" height="25" fill="none" viewBox="0 0 24 25">
    <g clip-path="url(#clip0)">
        <path fill="#1D8CCD" d="M12.055.912h-.039c-6.507 0-11.8 5.292-11.8 11.8 0 2.655.907 5.234 2.566 7.311l-1.716 3.993c-.142.328.012.708.334.843.116.051.244.064.367.045l6.295-1.106c1.26.456 2.585.688 3.922.681 6.508 0 11.8-5.292 11.8-11.8C23.797 6.192 18.544.92 12.055.913zM8.017 10.34h3.472c.354 0 .643.29.643.643 0 .354-.29.643-.643.643H8.017c-.354 0-.643-.29-.643-.643 0-.354.29-.643.643-.643zm7.973 4.501H8.017c-.354 0-.643-.29-.643-.643 0-.353.29-.643.643-.643h7.973c.354 0 .643.29.643.643 0 .354-.289.643-.643.643z"/>
    </g>
    <defs>
        <clipPath id="clip0">
            <path fill="#fff" d="M0 0H24V24H0z" transform="translate(0 .912)"/>
        </clipPath>
    </defs>
</svg>
