<svg xmlns="http://www.w3.org/2000/svg" width="16" height="21" fill="none" viewBox="0 0 16 21">
    <path fill="#B9B9B9" d="M15.457 12.622c-.229-2.983-1.618-4.852-2.843-6.502C11.48 4.593 10.5 3.275 10.5 1.33c0-.157-.088-.3-.226-.371-.14-.072-.307-.06-.433.032C8 2.307 6.466 4.526 5.929 6.644c-.372 1.474-.421 3.13-.428 4.225-1.7-.362-2.084-2.904-2.088-2.932-.02-.132-.1-.246-.217-.31-.119-.061-.258-.065-.378-.006-.089.043-2.187 1.11-2.31 5.365-.008.142-.008.284-.008.426 0 4.135 3.365 7.5 7.5 7.5H8.022c4.125-.012 7.478-3.372 7.478-7.5 0-.208-.043-.79-.043-.79zM8 20.078c-1.379 0-2.5-1.194-2.5-2.663 0-.05 0-.1.003-.162.017-.62.135-1.042.264-1.323.241.519.673.996 1.375.996.23 0 .417-.186.417-.416 0-.594.012-1.278.16-1.896.131-.547.445-1.13.843-1.597.177.606.522 1.097.86 1.576.482.685.98 1.393 1.067 2.601.006.072.011.144.011.221 0 1.469-1.121 2.663-2.5 2.663z"/>
</svg>
