<svg xmlns="http://www.w3.org/2000/svg" width="43" height="44" fill="none" viewBox="0 0 43 44">
    <rect width="43" height="43" y=".912" fill="#F2F2F2" rx="21.5"/>
    <g fill="#B9B9B9" clip-path="url(#clip0)">
        <path d="M18.875 18.912c1.933 0 3.5-1.567 3.5-3.5s-1.567-3.5-3.5-3.5-3.5 1.567-3.5 3.5 1.567 3.5 3.5 3.5zM23.988 22.198c-.243-.94-.791-1.772-1.558-2.367-.767-.594-1.71-.918-2.68-.919H18c-1.16.001-2.272.463-3.092 1.283-.82.82-1.282 1.932-1.283 3.092v3.5c0 .232.092.455.256.619.164.164.387.256.619.256h6.125c.001-1.132.316-2.242.91-3.207.593-.964 1.442-1.746 2.453-2.257z"/>
        <path d="M26.75 22.412c-1.038 0-2.053.308-2.917.885-.863.577-1.536 1.397-1.933 2.356-.398.96-.502 2.015-.3 3.033.203 1.019.703 1.954 1.438 2.688.734.735 1.67 1.235 2.688 1.437 1.018.203 2.074.099 3.033-.298.96-.398 1.78-1.07 2.356-1.934.577-.864.885-1.878.885-2.917-.002-1.392-.555-2.726-1.54-3.71-.984-.985-2.318-1.538-3.71-1.54zm3.016 5.774c-.705 1.41-2.732 2.448-2.818 2.491-.05.026-.144.1-.198.1-.054 0-.148-.075-.198-.1-.085-.043-2.113-1.081-2.818-2.491-.513-1.025-.296-2.194.517-2.779.58-.419 1.517-.545 2.499.245.982-.79 1.918-.664 2.5-.245.811.585 1.029 1.754.516 2.779z"/>
    </g>
    <defs>
        <clipPath id="clip0">
            <path fill="#fff" d="M0 0H21V21H0z" transform="translate(11 11.912)"/>
        </clipPath>
    </defs>
</svg>
