<svg xmlns="http://www.w3.org/2000/svg" width="43" height="44" fill="none" viewBox="0 0 43 44">
    <rect width="43" height="43" y=".412" fill="#F2F2F2" rx="21.5"/>
    <path fill="#B9B9B9" d="M17.215 15.64c0-1.345 1.09-2.435 2.435-2.435s2.436 1.09 2.436 2.435-1.09 2.436-2.436 2.436c-1.345 0-2.435-1.09-2.435-2.436zm3.606 4.095c.024-.53.207-1.021.5-1.427-.206-.043-.419-.066-.637-.066h-2.067c-.218 0-.43.023-.636.065.313.434.5.963.503 1.536.38-.209.816-.328 1.279-.328.376 0 .733.079 1.058.22zm.412.218c.707.444 1.204 1.195 1.294 2.066.289.135.609.212.948.212 1.24 0 2.244-1.004 2.244-2.244 0-1.24-1.004-2.244-2.244-2.244-1.228 0-2.223.987-2.242 2.21zm-1.47 4.595c1.24 0 2.244-1.005 2.244-2.244 0-1.239-1.005-2.244-2.244-2.244-1.24 0-2.244 1.005-2.244 2.244 0 1.24 1.005 2.244 2.244 2.244zm.952.153H18.81c-1.584 0-2.873 1.289-2.873 2.873v2.33l.006.036.16.05c1.512.472 2.825.63 3.907.63 2.111 0 3.335-.603 3.41-.641l.15-.076h.017v-2.329c0-1.584-1.289-2.873-2.873-2.873zm3.713-2.317h-1.89c-.02.757-.343 1.437-.853 1.927 1.408.419 2.438 1.724 2.438 3.267v.718c1.865-.07 2.94-.598 3.011-.633l.15-.076h.016v-2.33c0-1.584-1.288-2.873-2.872-2.873zm.505-4.688c.707.443 1.203 1.194 1.294 2.065.288.135.608.212.948.212 1.24 0 2.244-1.004 2.244-2.243 0-1.24-1.005-2.244-2.244-2.244-1.228 0-2.224.986-2.242 2.21zm3.194 2.43h-1.89c-.02.757-.342 1.438-.853 1.927 1.408.418 2.439 1.724 2.439 3.267v.718c1.865-.069 2.94-.597 3.011-.633l.15-.076H31v-2.33c0-1.583-1.289-2.872-2.873-2.872zm-12.301 2.105c.439 0 .847-.128 1.193-.346.11-.718.495-1.345 1.044-1.771.002-.043.006-.084.006-.127 0-1.24-1.005-2.244-2.243-2.244-1.24 0-2.245 1.005-2.245 2.244 0 1.24 1.005 2.244 2.245 2.244zm2.015 2.08c-.508-.487-.83-1.164-.853-1.916-.07-.005-.14-.01-.211-.01h-1.904c-1.584 0-2.873 1.288-2.873 2.873v2.329l.006.036.16.05c1.213.379 2.296.553 3.236.608v-.703c0-1.543 1.03-2.849 2.439-3.267z"/>
</svg>
