<svg xmlns="http://www.w3.org/2000/svg" width="76" height="77" fill="none" viewBox="0 0 76 77">
    <g clip-path="url(#clip0)">
        <path fill="#FFD93B" d="M38 76.655c20.987 0 38-17.013 38-38 0-20.986-17.013-38-38-38s-38 17.014-38 38c0 20.987 17.013 38 38 38z"/>
        <path fill="#F4C534" d="M75.999 38.655c0 20.995-17.017 38-38 38-11.947 0-22.61-5.51-29.581-14.143 6.52 5.273 14.82 8.42 23.857 8.42 20.983 0 38-17.006 38-38 0-9.037-3.147-17.338-8.42-23.857C70.477 16.045 76 26.709 76 38.655z"/>
        <path fill="#3E4347" d="M57.65 46.562c3.338.914-2.013 18.67-19.65 18.8-17.636-.13-22.987-17.886-19.648-18.8 2.67-1.316 9.83 5.975 19.649 5.975 9.953-.002 16.979-7.291 19.648-5.975z"/>
        <path fill="#E24B4B" d="M25.731 38.772c-.207.254-.553.316-.838.159-2.138-1.124-10.735-5.938-11.56-10.42-.522-2.833 1.347-5.557 4.18-6.08 2.043-.38 4.021.492 5.178 2.09.492-1.9 2.043-3.42 4.085-3.783 2.834-.522 5.541 1.347 6.064 4.18.824 4.48-5.51 12.032-7.109 13.854z"/>
        <path fill="#D03F3F" d="M26.632 37.71c-.364.444-.682.807-.903 1.062-.206.254-.553.315-.838.159-2.137-1.124-10.735-5.938-11.56-10.42-.474-2.548.982-5.004 3.343-5.842-1.205 1.17-1.822 2.914-1.49 4.686.808 4.417 9.151 9.15 11.448 10.355z"/>
        <path fill="#fff" d="M30.476 24.316c-.415-1.058-1.33-1.69-2.043-1.41-.713.28-.954 1.365-.539 2.424.416 1.058 1.33 1.69 2.044 1.41.713-.28.954-1.366.538-2.424z" opacity=".2"/>
        <path fill="#E24B4B" d="M49.393 38.772c.207.254.553.316.838.159 2.138-1.124 10.735-5.938 11.56-10.42.522-2.833-1.347-5.557-4.18-6.08-2.043-.38-4.021.492-5.178 2.09-.492-1.9-2.043-3.42-4.085-3.783-2.833-.522-5.54 1.347-6.063 4.18-.825 4.48 5.507 12.032 7.108 13.854z"/>
        <path fill="#D03F3F" d="M48.49 37.71c.364.444.682.807.903 1.062.206.254.553.315.838.159 2.138-1.124 10.735-5.938 11.56-10.42.474-2.548-.982-5.004-3.342-5.842 1.204 1.17 1.821 2.914 1.489 4.686-.808 4.417-9.154 9.15-11.448 10.355z"/>
        <path fill="#fff" d="M46.684 22.91c-.713-.28-1.627.35-2.043 1.41-.416 1.058-.174 2.142.539 2.422.713.28 1.627-.35 2.043-1.41.416-1.058.174-2.143-.539-2.423z" opacity=".2"/>
        <path fill="#E24B4B" d="M38 65.362c3.405-.026 6.348-.712 8.863-1.802-.57-1.675-1.594-3.136-2.94-4.23-1.081-.891-2.565-1.052-3.9-.62-.77.242-1.634.392-2.591.392-.744 0-1.43-.095-2.064-.243-1.444-.363-2.955.067-4.007 1.121-.995.995-1.757 2.221-2.22 3.584 2.515 1.088 5.455 1.774 8.858 1.798z"/>
    </g>
    <defs>
        <clipPath id="clip0">
            <path fill="#fff" d="M0 0H76V76H0z" transform="translate(0 .655)"/>
        </clipPath>
    </defs>
</svg>
