<svg xmlns="http://www.w3.org/2000/svg" width="17" height="19" fill="none" viewBox="0 0 17 19">
    <path fill="#B9B9B9" d="M1.77 8.209c-.975 0-1.77.848-1.77 1.889v6.043c0 1.04.795 1.888 1.77 1.888h2.126c.399 0 .766-.143 1.062-.382V8.21H1.771zM17 11.042c0-.454-.17-.877-.462-1.19.331-.385.5-.903.453-1.441-.082-.96-.893-1.713-1.847-1.713H10.77c.217-.702.564-1.988.564-3.022 0-1.638-1.306-3.021-2.125-3.021-.736 0-1.262.442-1.285.46-.083.072-.132.18-.132.295v2.562l-2.04 4.713-.085.046v8.097c.577.29 1.306.446 1.77.446h6.503c.771 0 1.446-.555 1.605-1.32.081-.393.034-.79-.129-1.134.524-.281.876-.856.876-1.512 0-.267-.057-.524-.166-.755.523-.281.874-.856.874-1.511z"/>
</svg>
