<svg xmlns="http://www.w3.org/2000/svg" width="81" height="61" fill="none" viewBox="0 0 81 61">
    <path fill="#fff" d="M65.795 2.541c0 .873-.698 1.629-1.629 1.629-.873 0-1.629-.698-1.629-1.629 0-.93.698-1.629 1.629-1.629.93 0 1.629.698 1.629 1.629zM70.855 2.541c0 .873-.698 1.629-1.629 1.629-.872 0-1.628-.698-1.628-1.629 0-.93.698-1.629 1.629-1.629.93 0 1.628.698 1.628 1.629zM75.918 2.541c0 .873-.698 1.629-1.629 1.629-.873 0-1.629-.698-1.629-1.629 0-.93.698-1.629 1.629-1.629.93 0 1.629.698 1.629 1.629zM80.978 2.541c0 .873-.698 1.629-1.628 1.629-.931 0-1.63-.698-1.63-1.629 0-.93.699-1.629 1.63-1.629.93 0 1.629.698 1.629 1.629zM23.5 47.862h2.21c.524 0 .99.174 1.222.407.233.233.349.465.349.814 0 .524-.291.815-.64 1.047.524.233.873.524.873 1.164 0 .872-.698 1.28-1.804 1.28h-2.269v-4.712h.059zm1.977 1.92c.466 0 .757-.175.757-.524 0-.291-.233-.466-.698-.466h-1.048v.99h.99zm.291 1.86c.466 0 .757-.174.757-.523 0-.29-.233-.523-.757-.523h-1.221v1.047h1.221zM28.387 47.86h3.607v.93h-2.56v.99h2.21v.93h-2.21v.99h2.56v.93h-3.607v-4.77zM36.066 48.79H34.61v-.989h3.956v.99h-1.454v3.78h-1.047v-3.78zM39.38 47.86h1.048v1.861h1.92V47.86h1.047v4.77h-1.047v-1.92h-1.92v1.92h-1.047v-4.77zM44.5 47.86h3.607v.93h-2.56v.99h2.21v.93h-2.21v.99h2.56v.93H44.5v-4.77zM24.202 54.432h1.861c.873 0 1.455.175 1.745.524.291.29.35.64.35.989 0 .756-.408 1.396-1.338 1.687l.64 1.57h-1.688l-.523-1.337h-.407l-.35 1.338h-1.57l1.28-4.77zm1.57 2.211c.524 0 .815-.233.815-.524 0-.116-.058-.174-.116-.232-.117-.117-.233-.117-.466-.117h-.582l-.232.931h.581v-.058zM29.028 54.432H33.1l-.349 1.28H30.25l-.116.466h2.327l-.291 1.163h-2.327l-.117.524h2.502l-.35 1.28h-4.071l1.221-4.713zM33.22 54.432h1.746l.174 2.676 1.63-2.676h1.803l-3.2 4.77h-1.512l-.64-4.77zM37.873 57.109c0-1.455 1.222-2.793 2.792-2.793 1.397 0 2.386.931 2.386 2.153 0 1.454-1.222 2.792-2.793 2.792-1.396 0-2.385-.93-2.385-2.152zm3.549-.524c0-.523-.291-.872-.873-.872-.64 0-1.105.64-1.105 1.221 0 .524.29.873.872.873.698.058 1.106-.582 1.106-1.222zM44.038 54.432h1.57l-.93 3.374h2.152l-.349 1.339h-3.723l1.28-4.713zM47.065 57.516c0-.233.058-.524.116-.756l.64-2.385h1.629l-.64 2.443c-.059.116-.059.29-.059.349 0 .407.233.582.64.582.175 0 .408-.059.524-.175.116-.116.233-.349.349-.698l.698-2.56h1.629l-.756 2.793c-.175.64-.407 1.105-.757 1.396-.465.465-1.105.64-1.861.64-1.454.116-2.152-.524-2.152-1.629zM53.812 55.77h-1.396l.35-1.338h4.362l-.349 1.338h-1.396l-.93 3.433H52.88l.931-3.433zM57.536 54.432h1.57l-1.28 4.77h-1.57l1.28-4.77zM58.873 57.109c0-1.455 1.222-2.793 2.792-2.793 1.397 0 2.386.931 2.386 2.153 0 1.454-1.222 2.792-2.793 2.792-1.454 0-2.385-.93-2.385-2.152zm3.549-.524c0-.523-.291-.872-.873-.872-.64 0-1.105.64-1.105 1.221 0 .524.29.873.872.873.698.058 1.106-.582 1.106-1.222zM65.04 54.432h1.512l1.105 2.27.582-2.27h1.57l-1.279 4.77h-1.396l-1.106-2.384-.64 2.385H63.76l1.28-4.77zM26.003 24.589c-3.666 0-6.69-2.502-6.69-6.4V7.37c0-.407.349-.698.698-.698h2.908c.407 0 .698.35.698.698v10.704c0 1.63.873 2.618 2.327 2.618 1.455 0 2.386-.93 2.386-2.617V7.368c0-.407.349-.698.698-.698h2.908c.407 0 .698.35.698.698v10.82c.117 3.898-2.966 6.4-6.631 6.4zM42.175 24.415h-6.98c-.408 0-.699-.35-.699-.698V7.427c0-.406.35-.697.698-.697h6.632c3.665 0 5.643 2.094 5.643 5.12 0 1.395-.64 2.384-1.28 2.966-.29.29-.29.814.058 1.047.698.582 1.455 1.57 1.455 3.374 0 3.316-2.386 5.178-5.527 5.178zm-.64-13.846h-1.978c-.407 0-.698.35-.698.698v1.455c0 .407.35.698.698.698h1.978c1.222 0 1.57-.756 1.57-1.455 0-.64-.406-1.396-1.57-1.396zm.175 6.807H39.5c-.408 0-.699.349-.699.698v1.687c0 .407.349.698.698.698h2.21c1.222 0 1.571-.815 1.571-1.57.059-.699-.349-1.513-1.57-1.513zM48.867 23.717V7.427c0-.406.35-.697.698-.697h2.909c.407 0 .698.349.698.698v12.39c0 .408.35.699.698.699h5.992c.407 0 .698.349.698.698v2.443c0 .408-.349.698-.698.698H49.507c-.349.059-.64-.232-.64-.64zM61.897 23.717V7.427c0-.406.349-.697.698-.697h2.908c.407 0 .698.349.698.698v16.289c0 .407-.349.698-.698.698h-2.908c-.35 0-.698-.291-.698-.698zM74.461 24.59c-2.152 0-3.665-.699-4.945-1.92-1.803-1.804-1.803-4.073-1.803-7.098 0-2.966 0-5.235 1.803-7.097 1.28-1.28 2.793-1.92 4.945-1.92 3.083 0 5.643 1.571 6.516 4.887.116.465-.233.873-.699.873h-3.025c-.29 0-.581-.175-.64-.466-.29-.814-.872-1.454-2.094-1.454-.814 0-1.396.349-1.745.756-.407.524-.698 1.164-.698 4.363 0 3.258.29 3.84.698 4.363.35.408.93.757 1.745.757 1.222 0 1.804-.64 2.094-1.455.117-.29.35-.465.64-.465h3.025c.466 0 .815.465.699.872-.931 3.375-3.433 5.003-6.516 5.003zM41.943 42.1c-1.28 1.279-2.792 1.919-4.945 1.919-2.152 0-3.665-.698-4.945-1.92-1.803-1.803-1.803-4.072-1.803-7.097 0-2.967 0-5.236 1.803-7.097 1.28-1.28 2.793-1.92 4.945-1.92 2.153 0 3.665.698 4.945 1.92 1.803 1.803 1.803 4.072 1.803 7.097.059 3.025.058 5.294-1.803 7.097zm-3.141-11.403c-.35-.407-.931-.756-1.746-.756-.814 0-1.396.349-1.745.756-.407.524-.64 1.105-.64 4.363 0 3.258.233 3.84.64 4.363.35.407.93.814 1.745.814.815 0 1.397-.349 1.746-.814.407-.523.64-1.105.64-4.363 0-3.258-.291-3.84-.64-4.363zM44.793 43.204V26.916c0-.408.349-.698.698-.698H48.4c.407 0 .698.349.698.698v12.39c0 .408.349.699.698.699h5.992c.407 0 .698.349.698.698v2.443c0 .407-.35.698-.698.698H45.433c-.291.058-.64-.232-.64-.64zM58 43.204V26.916c0-.408.349-.698.698-.698h2.909c.407 0 .698.349.698.698v12.39c0 .408.349.699.698.699h5.992c.407 0 .698.349.698.698v2.443c0 .407-.35.698-.698.698H58.64c-.35.058-.64-.232-.64-.64zM14.253 6.38H3.316C1.513 6.38 0 7.835 0 9.696v18.092c0 3.665 1.629 6.632 2.792 8.261.64.873 1.63 1.396 2.676 1.396 1.804 0 3.316-1.454 3.316-3.316v-5.933c0-2.27 1.804-4.073 4.072-4.073h1.397c1.803 0 3.316-1.454 3.316-3.316V9.639c-.059-1.745-1.513-3.258-3.316-3.258zm-.175 5.236c-.872 0-1.629-.698-1.629-1.629 0-.872.698-1.629 1.63-1.629.872 0 1.628.698 1.628 1.63 0 .93-.698 1.628-1.629 1.628z"/>
    <path fill="#fff" d="M24.55 26.276H13.495c-1.512 0-2.676 1.221-2.676 2.676v21.524c0 3.432 1.455 6.283 2.618 7.97.698 1.047 1.862 1.629 3.083 1.629 2.444 0 4.247-2.327 3.607-4.712-.349-1.28-.582-5.643-.582-7.33v-.291c0-2.094 1.688-3.781 3.782-3.781h1.221c2.095 0 3.782-1.688 3.782-3.782V29.941c0-1.978-1.687-3.665-3.782-3.665zm.116 5.468c-.873 0-1.63-.698-1.63-1.629 0-.872.699-1.629 1.63-1.629.872 0 1.629.698 1.629 1.63 0 .93-.699 1.628-1.63 1.628z"/>
</svg>
