<svg xmlns="http://www.w3.org/2000/svg" width="76" height="77" fill="none" viewBox="0 0 76 77">
    <g clip-path="url(#clip0)">
        <path fill="#FFCA28" d="M38 76.655c20.987 0 38-17.013 38-38 0-20.986-17.013-38-38-38s-38 17.014-38 38c0 20.987 17.013 38 38 38z"/>
        <path fill="#6D4C41" d="M23.75 33.905c2.623 0 4.75-2.126 4.75-4.75 0-2.623-2.127-4.75-4.75-4.75S19 26.532 19 29.155c0 2.624 2.127 4.75 4.75 4.75zM52.25 33.905c2.623 0 4.75-2.126 4.75-4.75 0-2.623-2.127-4.75-4.75-4.75s-4.75 2.127-4.75 4.75c0 2.624 2.127 4.75 4.75 4.75zM49.875 57.655h-23.75c-1.311 0-2.375-1.064-2.375-2.375 0-1.31 1.064-2.375 2.375-2.375h23.75c1.311 0 2.375 1.064 2.375 2.375s-1.064 2.375-2.375 2.375z"/>
    </g>
    <defs>
        <clipPath id="clip0">
            <path fill="#fff" d="M0 0H76V76H0z" transform="translate(0 .655)"/>
        </clipPath>
    </defs>
</svg>
