<svg xmlns="http://www.w3.org/2000/svg" width="20" height="21" fill="none" viewBox="0 0 20 21">
    <g clip-path="url(#clip0)">
        <path fill="#278CCC" d="M14.875 18.277l.794-1.984c.222-.556.335-1.142.335-1.74v-7.61c0-.408-.32-.749-.711-.76-.2-.005-.389.068-.531.207-.143.14-.222.326-.222.525v5.286h-.586c-2.583 0-4.685 2.102-4.685 4.685H8.097c0-1.566.609-3.037 1.715-4.142.966-.967 2.212-1.554 3.556-1.686V2.962c0-.404-.328-.732-.732-.732-.403 0-.731.328-.731.732v7.006h-1.172V1.644c0-.404-.329-.732-.732-.732-.404 0-.732.328-.732.732v8.324H8.097V2.962c0-.404-.328-.732-.732-.732-.403 0-.731.328-.731.732v7.006H5.462V6.915c0-.2-.079-.386-.222-.525-.143-.139-.332-.212-.531-.207-.392.011-.71.352-.71.76v11.334h10.876zM3.998 19.448h10.688v1.464H3.998V19.45z"/>
    </g>
    <defs>
        <clipPath id="clip0">
            <path fill="#fff" d="M0 0H20V20H0z" transform="translate(0 .912)"/>
        </clipPath>
    </defs>
</svg>
