<svg xmlns="http://www.w3.org/2000/svg" width="76" height="77" fill="none" viewBox="0 0 76 77">
    <g clip-path="url(#clip0)">
        <path fill="#FFCA28" d="M38 76.655c20.987 0 38-17.013 38-38 0-20.986-17.013-38-38-38s-38 17.014-38 38c0 20.987 17.013 38 38 38z"/>
        <path fill="#6D4C41" d="M53.115 59.166c-.608 0-1.216-.233-1.681-.694-7.182-7.182-19.694-7.182-26.871 0-.926.926-2.432.926-3.358 0-.927-.926-.927-2.432 0-3.358 4.488-4.484 10.45-6.959 16.796-6.959s12.307 2.475 16.79 6.959c.927.926.927 2.432 0 3.358-.46.466-1.068.694-1.676.694zM23.75 33.905c2.623 0 4.75-2.126 4.75-4.75 0-2.623-2.127-4.75-4.75-4.75S19 26.532 19 29.155c0 2.624 2.127 4.75 4.75 4.75zM52.25 33.905c2.623 0 4.75-2.126 4.75-4.75 0-2.623-2.127-4.75-4.75-4.75s-4.75 2.127-4.75 4.75c0 2.624 2.127 4.75 4.75 4.75z"/>
    </g>
    <defs>
        <clipPath id="clip0">
            <path fill="#fff" d="M0 0H76V76H0z" transform="translate(0 .655)"/>
        </clipPath>
    </defs>
</svg>
