<svg xmlns="http://www.w3.org/2000/svg" width="14" height="16" fill="none" viewBox="0 0 14 16">
    <g clip-path="url(#clip0)">
        <path fill="#B9B9B9" d="M11.102 10.336c-.81 0-1.53.42-1.98 1.067L5.26 9.298c.064-.235.1-.484.1-.74 0-.348-.065-.68-.18-.985L9.228 4.98c.452.566 1.124.925 1.874.925 1.357 0 2.46-1.178 2.46-2.625S12.46.655 11.102.655 8.64 1.832 8.64 3.279c0 .335.059.655.166.95l-4.058 2.6c-.452-.549-1.114-.896-1.85-.896C1.54 5.933.436 7.11.436 8.558c0 1.447 1.104 2.624 2.461 2.624.824 0 1.554-.434 2.001-1.098l3.852 2.099c-.072.246-.11.507-.11.778 0 1.447 1.104 2.624 2.46 2.624 1.357 0 2.461-1.177 2.461-2.624s-1.103-2.625-2.46-2.625zm0-8.806c.904 0 1.64.785 1.64 1.75 0 .964-.736 1.749-1.64 1.749-.905 0-1.641-.785-1.641-1.75 0-.964.736-1.75 1.64-1.75zm-8.204 8.777c-.904 0-1.64-.785-1.64-1.75 0-.964.736-1.75 1.64-1.75.905 0 1.641.786 1.641 1.75 0 .965-.736 1.75-1.64 1.75zm8.204 4.404c-.905 0-1.641-.785-1.641-1.75s.736-1.75 1.64-1.75c.905 0 1.641.785 1.641 1.75s-.736 1.75-1.64 1.75z"/>
    </g>
    <defs>
        <clipPath id="clip0">
            <path fill="#fff" d="M0 0H14V14.931H0z" transform="translate(0 .655)"/>
        </clipPath>
    </defs>
</svg>
