<svg xmlns="http://www.w3.org/2000/svg" width="76" height="77" fill="none" viewBox="0 0 76 77">
    <g clip-path="url(#clip0)">
        <path fill="#FFCA28" d="M38 76.655c20.987 0 38-17.013 38-38 0-20.986-17.013-38-38-38s-38 17.014-38 38c0 20.987 17.013 38 38 38z"/>
        <path fill="#6D4C41" d="M23.75 33.905c2.623 0 4.75-2.126 4.75-4.75 0-2.623-2.127-4.75-4.75-4.75S19 26.532 19 29.155c0 2.624 2.127 4.75 4.75 4.75zM52.25 33.905c2.623 0 4.75-2.126 4.75-4.75 0-2.623-2.127-4.75-4.75-4.75s-4.75 2.127-4.75 4.75c0 2.624 2.127 4.75 4.75 4.75zM38 62.405c-6.346 0-12.307-2.474-16.796-6.958-.926-.927-.926-2.432 0-3.359.927-.926 2.433-.926 3.359 0 7.177 7.182 19.689 7.182 26.87 0 .927-.926 2.432-.926 3.359 0 .926.927.926 2.432 0 3.359C50.308 59.93 44.346 62.405 38 62.405z"/>
    </g>
    <defs>
        <clipPath id="clip0">
            <path fill="#fff" d="M0 0H76V76H0z" transform="translate(0 .655)"/>
        </clipPath>
    </defs>
</svg>
