<svg xmlns="http://www.w3.org/2000/svg" width="43" height="44" fill="none" viewBox="0 0 43 44">
    <rect width="43" height="43" y=".912" fill="#F2F2F2" rx="21.5"/>
    <g clip-path="url(#clip0)">
        <path fill="#B9B9B9" d="M17.313 27.014c2.26 0 4.101-1.84 4.101-4.102 0-2.261-1.84-4.101-4.102-4.101-2.26 0-4.101 1.84-4.101 4.101 0 2.262 1.84 4.102 4.101 4.102zm-.586-4.102c0 .323.262.586.585.586.324 0 .586-.263.586-.586h1.172c0 .97-.788 1.758-1.758 1.758-.969 0-1.757-.789-1.757-1.758h1.172zM21.414 31.74c0-2.584-2.103-4.726-4.687-4.726-2.585 0-4.727 2.142-4.727 4.726v1.172h9.414V31.74zM27.273 27.014c-2.584 0-4.687 2.142-4.687 4.726v1.172H32V31.74c0-2.584-2.142-4.726-4.727-4.726zM21.414 12.912h1.172v3.555h-1.172v-3.555zM16.512 14.578l1.015-.586 1.758 3.044-1.015.586-1.758-3.044zM24.715 17.038l1.758-3.045 1.015.586-1.758 3.045-1.015-.586zM26.688 27.014c2.26 0 4.101-1.84 4.101-4.102 0-2.261-1.84-4.101-4.102-4.101-2.26 0-4.101 1.84-4.101 4.101 0 2.262 1.84 4.102 4.102 4.102zm-.586-4.102c0 .323.262.586.585.586.324 0 .586-.263.586-.586h1.172c0 .97-.788 1.758-1.758 1.758-.969 0-1.757-.789-1.757-1.758h1.172z"/>
    </g>
    <defs>
        <clipPath id="clip0">
            <path fill="#fff" d="M0 0H20V20H0z" transform="translate(12 12.912)"/>
        </clipPath>
    </defs>
</svg>
