<svg xmlns="http://www.w3.org/2000/svg" width="43" height="44" fill="none" viewBox="0 0 43 44">
    <rect width="43" height="43" y=".912" fill="#F2F2F2" rx="21.5"/>
    <g fill="#B9B9B9" clip-path="url(#clip0)">
        <path d="M22 19.984c1.877 0 3.398-1.522 3.398-3.399S23.877 13.187 22 13.187c-1.877 0-3.398 1.521-3.398 3.398 0 1.877 1.521 3.399 3.398 3.399zM28.875 19.984c1.186 0 2.148-.962 2.148-2.149 0-1.186-.962-2.148-2.148-2.148-1.186 0-2.148.962-2.148 2.148 0 1.187.962 2.149 2.148 2.149zM15.125 19.984c1.186 0 2.148-.962 2.148-2.149 0-1.186-.962-2.148-2.148-2.148-1.187 0-2.148.962-2.148 2.148 0 1.187.961 2.149 2.148 2.149zM17.242 21.913c-.846-.693-1.612-.601-2.59-.601-1.462 0-2.652 1.182-2.652 2.636v4.266c0 .631.515 1.145 1.149 1.145 2.735 0 2.406.049 2.406-.119 0-3.022-.358-5.24 1.687-7.327z"/>
        <path d="M22.93 21.327c-1.707-.142-3.192.002-4.472 1.059-2.143 1.716-1.73 4.027-1.73 6.855 0 .748.608 1.368 1.367 1.368 8.245 0 8.574.266 9.063-.817.16-.366.116-.25.116-3.753 0-2.782-2.41-4.712-4.343-4.712zM29.347 21.312c-.983 0-1.745-.091-2.59.601 2.03 2.072 1.688 4.138 1.688 7.328 0 .168-.274.118 2.365.118.656 0 1.19-.532 1.19-1.186v-4.225c0-1.453-1.19-2.636-2.653-2.636z"/>
    </g>
    <defs>
        <clipPath id="clip0">
            <path fill="#fff" d="M0 0H20V20H0z" transform="translate(12 11.912)"/>
        </clipPath>
    </defs>
</svg>
